<?xml version="1.0" standalone="no"?>
<!DOCTYPE svg PUBLIC "-//W3C//DTD SVG 20010904//EN"
 "http://www.w3.org/TR/2001/REC-SVG-20010904/DTD/svg10.dtd">
<svg version="1.0" xmlns="http://www.w3.org/2000/svg"
 width="256.000000pt" height="256.000000pt" viewBox="0 0 256.000000 256.000000"
 preserveAspectRatio="xMidYMid meet">

<g transform="translate(0.000000,256.000000) scale(0.100000,-0.100000)"
fill="#000000" stroke="none">
<path d="M1170 2331 c-95 -31 -158 -101 -176 -195 l-7 -39 -13 29 c-7 16 -13
23 -13 16 -1 -6 8 -29 19 -49 11 -21 20 -44 20 -51 0 -28 42 -93 91 -141 l51
-50 -11 -70 c-6 -38 -11 -72 -11 -75 0 -15 -18 -3 -28 18 -26 57 -96 70 -108
20 -7 -27 22 -82 97 -184 36 -50 46 -71 42 -92 -4 -20 0 -29 18 -39 25 -13 89
-15 138 -4 l31 7 0 -97 c0 -96 0 -96 -22 -88 -35 12 -115 8 -134 -8 -15 -12
-16 -7 -13 69 6 118 -14 109 -27 -13 -6 -55 -16 -113 -22 -128 -26 -62 -2
-128 60 -168 28 -17 44 -19 103 -15 81 7 326 6 465 0 98 -5 135 4 150 36 4 8
12 25 18 37 7 13 12 35 13 50 0 26 1 27 12 9 28 -46 81 -96 121 -115 50 -25
140 -28 190 -7 47 20 104 73 128 120 56 109 3 277 -108 342 -106 62 -211 50
-295 -34 -44 -44 -56 -70 -74 -154 -6 -30 -22 -34 -83 -22 l-30 6 33 30 c43
37 52 64 29 89 -9 10 -22 19 -29 19 -19 0 -125 -72 -182 -124 -45 -40 -55 -46
-72 -36 -17 9 -23 6 -37 -15 -13 -20 -15 -39 -11 -83 3 -31 9 -67 13 -79 6
-23 5 -23 -80 -23 l-87 0 17 31 c12 24 14 45 9 85 l-6 54 55 0 c31 0 56 5 56
10 0 6 -25 10 -56 10 l-56 0 4 143 c2 102 -1 148 -9 158 -9 12 -9 24 4 59 21
60 23 161 3 185 -8 10 -37 29 -65 41 -49 23 -49 24 -17 24 74 0 160 63 198
145 29 62 31 143 5 200 -20 44 -90 114 -141 140 -38 20 -133 28 -170 16z m158
-38 c66 -31 123 -124 121 -199 -2 -88 -55 -134 -107 -94 -14 11 -33 20 -43 20
-10 0 -21 5 -24 10 -10 17 52 11 69 -6 14 -14 16 -14 16 0 0 9 -16 20 -40 27
-35 11 -42 10 -59 -5 -23 -21 -30 -18 -88 38 -46 43 -52 60 -27 74 31 17 -8
97 -44 90 -8 -2 -24 -15 -35 -30 -18 -25 -19 -31 -8 -69 16 -52 97 -141 155
-169 41 -19 106 -27 119 -14 3 4 22 8 42 9 l36 2 -23 -25 c-30 -32 -94 -62
-135 -62 -29 0 -32 3 -35 33 -2 27 -7 32 -28 32 -16 0 -28 -8 -35 -22 -13 -30
-24 -29 -62 6 -46 42 -73 101 -73 162 0 159 162 260 308 192z m-187 -90 c15
-40 -10 -50 -33 -12 -23 37 -22 39 2 39 13 0 24 -10 31 -27z m-43 -18 c7 -14
12 -33 12 -41 0 -9 28 -42 62 -75 51 -48 69 -59 96 -59 44 0 80 -19 61 -31
-21 -13 -47 -11 -84 7 -77 36 -175 149 -175 201 0 30 14 29 28 -2z m95 -352
c-6 -43 -10 -80 -8 -81 9 -10 25 12 25 34 0 13 5 24 10 24 6 0 10 -21 10 -46
0 -52 16 -51 26 1 9 47 28 32 21 -16 -6 -43 16 -57 27 -17 4 17 8 20 17 11 16
-16 -6 -168 -32 -211 -24 -42 -24 -42 6 -42 14 0 25 -4 25 -10 0 -28 -109 -49
-155 -29 -28 12 -29 13 -7 16 29 6 28 10 -12 49 -42 40 -136 191 -136 216 0
32 30 19 62 -27 18 -25 37 -45 44 -45 14 0 28 54 44 165 14 103 17 112 32 97
9 -9 9 -31 1 -89z m1012 -382 c55 -25 109 -87 125 -145 28 -99 -25 -206 -124
-252 -57 -27 -91 -29 -148 -12 -37 11 -128 80 -128 98 0 5 18 11 40 15 32 5
46 2 71 -16 l32 -22 119 39 c137 44 155 60 105 94 -26 18 -37 37 -56 101 -28
91 -9 88 -184 32 -60 -19 -111 -41 -114 -49 -3 -8 -1 -32 5 -54 l10 -40 -30 0
c-30 0 -30 0 -24 43 22 139 175 226 301 168z m24 -102 c14 -44 17 -61 8 -63
-7 -2 -58 -18 -114 -35 -90 -28 -133 -32 -133 -12 0 3 -7 27 -15 53 l-14 47
107 35 c59 20 114 35 124 36 11 0 22 -19 37 -61z m-419 -3 c0 -16 -21 -40 -56
-63 -13 -8 -24 -23 -24 -33 0 -15 11 -19 68 -24 142 -13 197 -21 194 -31 -1
-6 -37 -10 -82 -10 -78 0 -117 -17 -52 -23 48 -5 39 -22 -13 -22 -54 0 -60
-15 -10 -24 43 -8 36 -29 -8 -24 -35 3 -48 -17 -16 -25 13 -4 18 -10 14 -18
-11 -17 -174 -5 -214 15 -39 21 -44 20 -38 -4 6 -23 -14 -27 -32 -7 -15 19
-31 109 -24 135 7 28 19 28 26 2 5 -18 11 -14 59 33 56 56 171 137 194 137 8
0 14 -6 14 -14z m469 -97 c13 -11 22 -21 20 -23 -2 -1 -52 -20 -111 -41 -103
-36 -109 -37 -133 -21 -44 29 -31 43 68 75 109 36 124 37 156 10z"/>
<path d="M1293 2140 c0 -25 2 -35 4 -22 2 12 2 32 0 45 -2 12 -4 2 -4 -23z"/>
<path d="M1330 2110 c0 -11 2 -20 4 -20 2 0 6 9 9 20 3 11 1 20 -4 20 -5 0 -9
-9 -9 -20z"/>
<path d="M1367 2093 c-4 -3 -7 -11 -7 -17 0 -6 5 -5 12 2 6 6 9 14 7 17 -3 3
-9 2 -12 -2z"/>
<path d="M2047 1319 c4 -20 0 -27 -16 -32 -11 -2 -22 0 -25 7 -3 7 -5 7 -5 -2
-1 -19 24 -25 48 -12 25 13 26 20 7 45 -13 19 -14 18 -9 -6z"/>
<path d="M1995 1320 c-3 -6 1 -7 9 -4 18 7 21 14 7 14 -6 0 -13 -4 -16 -10z"/>
<path d="M1536 2145 c-3 -9 -6 -26 -5 -38 1 -16 4 -12 10 12 10 34 6 55 -5 26z"/>
<path d="M1692 2050 c-23 -36 -28 -60 -14 -60 14 0 45 65 40 81 -3 9 -12 2
-26 -21z"/>
<path d="M770 2059 c0 -9 19 -41 46 -78 2 -1 7 0 13 3 7 5 1 22 -16 46 -25 39
-43 51 -43 29z"/>
<path d="M606 1959 c-18 -26 -21 -59 -6 -59 6 0 10 -11 10 -25 0 -14 -4 -25
-10 -25 -5 0 -10 -4 -10 -10 0 -5 13 -10 29 -10 l29 0 -5 68 c-6 78 -15 92
-37 61z"/>
<path d="M1857 1973 c-17 -17 -6 -33 18 -27 19 5 25 2 25 -9 0 -9 -11 -29 -25
-45 -32 -38 -32 -52 3 -52 47 0 72 11 72 31 0 20 -15 26 -25 9 -3 -5 -13 -10
-22 -10 -15 0 -14 2 0 18 20 22 22 63 5 80 -13 13 -41 16 -51 5z"/>
<path d="M526 1948 c-18 -26 -21 -48 -6 -48 6 0 10 -11 10 -25 0 -14 -5 -25
-11 -25 -6 0 -9 -6 -6 -12 2 -7 15 -11 28 -10 26 4 52 22 31 22 -8 0 -12 20
-12 60 0 64 -9 74 -34 38z"/>
<path d="M2028 1720 c-40 -21 -53 -36 -40 -44 11 -6 84 36 90 52 5 16 -6 15
-50 -8z"/>
<path d="M430 1710 c0 -9 62 -40 81 -40 22 0 6 22 -26 36 -40 17 -55 18 -55 4z"/>
<path d="M2121 1539 c-13 -5 -22 -11 -20 -14 8 -7 49 7 49 16 0 5 -1 9 -2 8
-2 0 -14 -5 -27 -10z"/>
<path d="M385 1530 c3 -5 16 -10 28 -9 21 0 21 1 2 9 -28 12 -37 12 -30 0z"/>
<path d="M365 1440 c28 -12 47 -12 40 0 -3 6 -18 10 -33 9 -24 0 -25 -1 -7 -9z"/>
<path d="M390 1411 c-158 -32 -256 -238 -178 -373 111 -188 386 -130 444 93
41 157 -106 312 -266 280z m125 -40 c146 -66 166 -264 36 -356 -39 -27 -50
-30 -121 -30 -87 0 -109 10 -164 79 -26 31 -31 48 -34 105 -3 54 0 76 17 109
48 95 169 137 266 93z"/>
<path d="M305 1280 c-29 -11 -47 -36 -42 -57 4 -14 5 -14 6 4 0 12 4 24 9 26
4 3 7 -26 7 -63 0 -37 -3 -66 -7 -63 -5 2 -8 14 -8 25 0 12 -3 19 -6 15 -4 -3
-4 -17 0 -31 7 -28 55 -56 97 -56 36 0 43 12 19 32 -16 14 -19 14 -24 2 -9
-23 -42 -16 -54 11 -25 54 -7 146 29 153 9 1 21 -8 27 -23 19 -40 15 -57 -10
-53 -17 2 -23 -2 -23 -17 0 -15 6 -19 22 -17 14 2 23 -3 26 -15 4 -15 5 -15 6
-1 1 23 111 31 111 8 0 -8 4 -20 8 -27 4 -6 7 20 7 57 0 37 -3 63 -7 57 -4 -7
-8 -20 -8 -29 0 -15 -9 -18 -55 -18 -43 0 -55 3 -55 15 0 25 -29 75 -43 74 -6
0 -21 -4 -32 -9z"/>
<path d="M516 1281 c-4 -5 3 -7 14 -4 19 5 19 4 5 -23 -17 -34 -19 -91 -5
-129 9 -23 8 -26 -5 -21 -9 3 -13 2 -10 -4 3 -6 25 -10 48 -10 l42 0 3 75 c3
71 1 77 -24 100 -27 25 -58 32 -68 16z m68 -27 c20 -20 21 -103 2 -129 -12
-16 -16 -17 -30 -6 -19 16 -22 101 -6 132 13 23 14 23 34 3z"/>
<path d="M498 829 c-36 -18 -50 -39 -28 -39 19 0 90 40 90 50 0 15 -21 11 -62
-11z"/>
<path d="M1970 840 c0 -10 58 -50 73 -50 21 0 2 28 -28 43 -42 20 -45 20 -45
7z"/>
<path d="M627 742 c-20 -22 -21 -36 -4 -65 6 -12 12 -39 12 -61 0 -45 24 -68
53 -50 22 14 27 57 8 73 -12 10 -12 16 0 39 19 37 18 48 -8 66 -29 21 -41 20
-61 -2z m51 -34 c-2 -13 -10 -23 -18 -23 -8 0 -16 10 -18 23 -3 17 2 22 18 22
16 0 21 -5 18 -22z m6 -94 c8 -22 8 -24 -8 -24 -18 0 -29 16 -21 30 9 15 22
12 29 -6z"/>
<path d="M1196 719 c-29 -5 -67 -20 -90 -36 -45 -32 -101 -116 -117 -178 -45
-165 120 -321 288 -274 65 17 153 104 176 173 61 180 -71 343 -257 315z m105
-30 c88 -30 142 -105 142 -199 0 -58 -24 -120 -60 -152 -31 -29 -106 -58 -149
-58 -58 0 -136 42 -170 92 -26 37 -29 50 -29 118 0 64 4 82 24 112 55 80 155
116 242 87z"/>
<path d="M1117 641 c-2 -3 -1 -74 1 -158 3 -103 8 -153 15 -156 7 -2 60 -2
119 1 l106 5 4 126 c4 129 2 151 -13 151 -5 0 -9 -58 -9 -130 l0 -130 -89 0
c-49 0 -96 -3 -105 -6 -14 -5 -16 11 -16 140 l0 146 118 1 c64 0 113 2 107 4
-20 7 -235 12 -238 6z"/>
<path d="M1180 595 c0 -8 -9 -15 -21 -15 -17 0 -20 -5 -17 -37 2 -21 6 -37 11
-35 4 1 27 2 51 2 39 0 44 2 39 20 -4 14 0 20 10 20 11 0 13 -6 9 -22 -3 -14
-2 -19 6 -14 20 12 14 46 -8 46 -15 0 -20 7 -20 25 0 21 -5 25 -30 25 -20 0
-30 -5 -30 -15z m50 -35 c0 -33 -3 -40 -20 -40 -17 0 -20 7 -20 40 0 33 3 40
20 40 17 0 20 -7 20 -40z m-50 -15 c0 -16 -6 -25 -15 -25 -9 0 -15 9 -15 25 0
16 6 25 15 25 9 0 15 -9 15 -25z"/>
<path d="M1238 473 c17 -2 47 -2 65 0 17 2 3 4 -33 4 -36 0 -50 -2 -32 -4z"/>
<path d="M1258 433 c12 -2 32 -2 45 0 12 2 2 4 -23 4 -25 0 -35 -2 -22 -4z"/>
<path d="M1278 393 c7 -3 16 -2 19 1 4 3 -2 6 -13 5 -11 0 -14 -3 -6 -6z"/>
<path d="M1802 658 c3 -39 6 -43 31 -46 21 -3 27 -9 27 -28 0 -24 14 -32 25
-15 8 14 -6 121 -16 121 -5 0 -9 -11 -9 -25 0 -35 -26 -32 -33 5 -10 46 -29
37 -25 -12z"/>
<path d="M821 524 c-25 -41 -25 -44 -8 -44 13 0 47 50 47 69 0 22 -18 10 -39
-25z"/>
<path d="M1660 535 c0 -14 47 -75 58 -75 17 0 15 5 -10 45 -20 29 -48 47 -48
30z"/>
<path d="M1521 440 c0 -8 4 -24 9 -35 l9 -20 0 20 c0 11 -4 27 -9 35 -9 13
-10 13 -9 0z"/>
</g>
</svg>
