<?xml version="1.0" standalone="no"?>
<!DOCTYPE svg PUBLIC "-//W3C//DTD SVG 20010904//EN"
 "http://www.w3.org/TR/2001/REC-SVG-20010904/DTD/svg10.dtd">
<svg version="1.0" xmlns="http://www.w3.org/2000/svg"
 width="256.000000pt" height="256.000000pt" viewBox="0 0 256.000000 256.000000"
 preserveAspectRatio="xMidYMid meet">

<g transform="translate(0.000000,256.000000) scale(0.100000,-0.100000)"
fill="#000000" stroke="none">
<path d="M1119 2357 c-143 -59 -212 -162 -213 -317 -1 -73 3 -93 27 -142 35
-72 97 -134 167 -167 46 -22 69 -26 145 -26 78 0 97 4 146 28 63 30 125 92
161 159 20 37 23 58 23 143 0 93 -2 104 -32 160 -82 159 -264 228 -424 162z
m141 -16 c0 -20 25 -35 42 -24 7 4 8 1 3 -6 -4 -7 -16 -11 -26 -8 -14 4 -19
-2 -23 -27 -5 -34 -36 -486 -36 -523 0 -14 -6 -23 -15 -23 -8 0 -15 9 -15 19
0 10 -16 33 -35 50 -38 33 -81 41 -104 19 -18 -18 -84 57 -105 119 -18 53 -21
141 -6 195 26 92 118 181 219 212 68 21 101 20 101 -3z m199 -133 c12 -32 2
-58 -26 -69 -51 -19 -95 38 -57 75 24 24 73 21 83 -6z m-89 -173 c0 -8 -4 -15
-10 -15 -5 0 -7 7 -4 15 4 8 8 15 10 15 2 0 4 -7 4 -15z m173 -95 c-7 -26 -22
-35 -35 -22 -15 15 -2 42 21 42 14 0 18 -5 14 -20z m-208 -55 c0 -22 -31 -33
-47 -17 -17 17 -1 44 24 40 15 -2 23 -10 23 -23z m90 -45 c-3 -5 -11 -10 -16
-10 -6 0 -7 5 -4 10 3 6 11 10 16 10 6 0 7 -4 4 -10z m-284 -43 c19 -12 35
-31 37 -41 4 -16 0 -18 -28 -12 -18 3 -48 15 -67 27 -27 17 -31 24 -22 35 16
20 41 17 80 -9z"/>
<path d="M1037 2222 c-33 -34 -44 -82 -27 -122 30 -72 125 -68 156 6 42 100
-58 190 -129 116z m107 -14 c39 -56 5 -148 -55 -148 -70 0 -101 90 -50 144 32
34 83 35 105 4z"/>
<path d="M1070 1964 c0 -3 7 -12 15 -20 13 -13 15 -13 15 -1 0 8 -7 17 -15 21
-8 3 -15 3 -15 0z"/>
<path d="M1848 2056 c-159 -57 -246 -187 -236 -350 9 -128 77 -229 196 -287
39 -20 63 -24 142 -24 81 0 103 4 145 25 65 32 134 102 164 165 83 177 -20
416 -202 470 -62 18 -159 19 -209 1z m136 -31 c4 -16 11 -23 18 -19 7 5 9 2 5
-8 -3 -9 5 -53 19 -99 38 -130 28 -299 -18 -299 -23 0 -35 -27 -19 -43 17 -17
14 -25 -36 -78 l-46 -49 -18 29 c-18 31 -65 61 -94 61 -8 0 -24 -5 -35 -12
-26 -17 -52 8 -93 91 -57 117 -40 243 48 340 47 52 88 77 156 95 83 22 106 21
113 -9z m174 -117 c20 -20 14 -56 -13 -74 -23 -15 -27 -15 -50 0 -27 18 -31
36 -15 67 12 22 59 26 78 7z m-63 -197 c-3 -6 -11 -11 -17 -11 -6 0 -6 6 2 15
14 17 26 13 15 -4z m155 -73 c0 -22 -17 -41 -29 -34 -19 12 -13 46 9 46 11 0
20 -6 20 -12z m-230 -57 c0 -12 -20 -25 -27 -18 -7 7 6 27 18 27 5 0 9 -4 9
-9z m110 -56 c-7 -9 -15 -13 -17 -11 -7 7 7 26 19 26 6 0 6 -6 -2 -15z m-265
-55 c43 -43 23 -55 -41 -26 -58 27 -73 44 -53 57 22 14 61 1 94 -31z m170 -30
c0 -22 -29 -18 -33 3 -3 14 1 18 15 15 10 -2 18 -10 18 -18z"/>
<path d="M1741 1904 c-74 -84 -7 -196 94 -158 24 9 45 58 45 102 0 53 -26 85
-73 88 -30 3 -41 -2 -66 -32z m109 1 c7 -8 15 -34 17 -58 9 -82 -67 -129 -124
-75 -29 27 -30 71 -3 116 17 27 25 32 59 32 22 0 44 -6 51 -15z"/>
<path d="M1785 1640 c10 -11 20 -18 23 -15 7 6 -18 35 -31 35 -5 0 -2 -9 8
-20z"/>
<path d="M474 1971 c-98 -25 -185 -95 -230 -183 -21 -41 -28 -71 -32 -133 -5
-101 19 -172 85 -245 162 -180 453 -139 560 79 24 48 28 68 28 141 0 72 -4 94
-28 146 -34 73 -104 145 -170 174 -52 23 -163 34 -213 21z m136 -67 c0 -2 -9
-4 -20 -4 -11 0 -20 4 -20 9 0 5 9 7 20 4 11 -3 20 -7 20 -9z m-156 -95 c36
-43 35 -91 -3 -130 -47 -46 -107 -37 -131 20 -16 39 -6 78 28 114 35 37 73 36
106 -4z m297 11 c38 -21 14 -90 -31 -90 -52 0 -68 74 -20 93 23 8 30 8 51 -3z
m-75 -196 c-4 -9 -9 -15 -11 -12 -3 3 -3 13 1 22 4 9 9 15 11 12 3 -3 3 -13
-1 -22z m-399 -6 c-3 -8 -6 -5 -6 6 -1 11 2 17 5 13 3 -3 4 -12 1 -19z m571
-80 c-4 -29 -38 -38 -38 -10 0 22 8 32 27 32 9 0 13 -8 11 -22z m-423 -17 c3
-6 -4 -9 -15 -8 -11 1 -20 5 -20 9 0 11 28 10 35 -1z m221 -32 c9 -16 -21 -43
-40 -36 -9 4 -16 16 -16 27 0 15 7 20 24 20 14 0 28 -5 32 -11z m84 -54 c-7
-9 -15 -13 -19 -10 -3 3 1 10 9 15 21 14 24 12 10 -5z m-279 -38 c19 -13 35
-33 37 -46 3 -21 1 -23 -25 -17 -15 4 -47 19 -71 32 -35 21 -41 28 -31 40 17
20 51 17 90 -9z"/>
<path d="M1930 1244 c-106 -28 -198 -112 -236 -216 -9 -24 -16 -74 -16 -113
-1 -137 67 -247 190 -307 58 -29 76 -33 147 -33 67 0 90 5 140 28 175 82 248
277 168 448 -53 113 -119 169 -232 195 -69 17 -92 17 -161 -2z m194 -34 c72
-28 135 -85 171 -156 24 -49 29 -72 29 -133 1 -72 0 -75 -24 -81 -30 -7 -39
-39 -15 -56 16 -12 15 -16 -13 -54 -62 -84 -151 -130 -253 -130 -56 0 -59 1
-59 24 0 53 -102 99 -139 64 -10 -11 -18 -6 -42 22 -145 172 -77 429 134 501
69 24 144 24 211 -1z m190 -388 c2 -4 1 -14 -4 -22 -7 -11 -12 -12 -21 -3 -6
6 -8 16 -5 22 8 13 23 14 30 3z m-395 -158 c30 -25 41 -54 21 -54 -15 0 -99
41 -106 51 -3 5 -2 14 1 19 11 18 53 10 84 -16z"/>
<path d="M2040 1190 c0 -12 28 -21 35 -11 2 5 -4 11 -15 14 -11 3 -20 2 -20
-3z"/>
<path d="M1806 1089 c-32 -38 -41 -70 -29 -105 24 -72 115 -84 153 -21 25 41
25 83 0 125 -17 27 -25 32 -59 32 -32 0 -44 -6 -65 -31z m96 13 c4 -1 15 -16
24 -33 21 -41 11 -92 -23 -119 -33 -26 -56 -25 -88 3 -37 32 -37 88 -1 126 24
25 48 31 88 23z"/>
<path d="M2145 1090 c-23 -25 -13 -67 20 -82 30 -13 49 -6 71 26 15 24 15 28
0 51 -20 31 -65 34 -91 5z m73 -2 c34 -34 -6 -90 -48 -68 -11 6 -20 12 -20 15
0 2 -3 10 -6 18 -12 32 48 61 74 35z"/>
<path d="M2126 905 c-3 -8 -1 -15 3 -15 5 0 11 7 15 15 3 8 1 15 -3 15 -5 0
-11 -7 -15 -15z"/>
<path d="M1850 825 c7 -8 17 -15 22 -15 6 0 5 7 -2 15 -7 8 -17 15 -22 15 -6
0 -5 -7 2 -15z"/>
<path d="M2063 783 c-17 -6 -16 -38 1 -52 11 -9 20 -10 35 -1 46 24 12 73 -36
53z m45 -25 c-7 -20 -48 -23 -48 -4 0 11 9 16 26 16 16 0 24 -5 22 -12z"/>
<path d="M2180 709 c0 -5 5 -7 10 -4 6 3 10 8 10 11 0 2 -4 4 -10 4 -5 0 -10
-5 -10 -11z"/>
<path d="M508 1166 c-105 -30 -180 -95 -227 -196 -57 -121 -24 -289 76 -381
71 -65 143 -93 238 -93 65 0 90 4 137 26 194 90 258 326 137 506 -61 92 -141
138 -257 147 -32 2 -78 -2 -104 -9z m138 -64 c-10 -2 -22 0 -28 6 -6 6 0 7 19
4 21 -5 23 -7 9 -10z m-165 -76 c22 -9 39 -50 39 -92 0 -72 -85 -111 -137 -62
-34 32 -32 96 5 136 28 30 52 35 93 18z m397 -63 c25 -59 36 -131 27 -172 -5
-24 -12 -31 -30 -31 -32 0 -42 -30 -16 -51 18 -15 19 -18 4 -40 -58 -87 -143
-139 -238 -146 -60 -5 -60 -4 -75 29 -10 22 -29 40 -58 54 l-43 20 146 138
c131 124 145 141 145 171 0 38 27 61 59 50 10 -3 24 1 31 10 19 23 26 19 48
-32z m-252 -81 c-17 -16 -18 -16 -5 5 7 12 15 20 18 17 3 -2 -3 -12 -13 -22z
m-179 -137 c9 -24 -1 -27 -15 -5 -8 13 -8 20 -2 20 6 0 13 -7 17 -15z m443
-15 c0 -11 -7 -20 -15 -20 -8 0 -15 9 -15 20 0 11 7 20 15 20 8 0 15 -9 15
-20z m-371 -156 c37 -31 39 -44 9 -44 -28 0 -108 36 -108 48 0 31 60 29 99 -4z"/>
<path d="M706 823 c-6 -14 -5 -15 5 -6 7 7 10 15 7 18 -3 3 -9 -2 -12 -12z"/>
<path d="M631 696 c-13 -16 -5 -42 15 -50 19 -7 54 10 54 27 0 33 -48 49 -69
23z m53 -27 c-3 -5 -14 -9 -25 -9 -21 0 -26 26 -6 33 15 5 39 -12 31 -24z"/>
<path d="M755 630 c-3 -5 -2 -10 4 -10 5 0 13 5 16 10 3 6 2 10 -4 10 -5 0
-13 -4 -16 -10z"/>
<path d="M1225 843 c-294 -106 -316 -498 -36 -635 69 -34 187 -37 266 -7 82
31 163 112 194 194 61 162 -23 370 -177 436 -67 30 -183 35 -247 12z m230 -37
c102 -46 164 -128 184 -241 13 -73 4 -120 -23 -120 -31 0 -43 -30 -22 -54 18
-20 18 -22 -9 -61 -28 -41 -102 -96 -141 -106 -30 -8 -97 28 -155 83 -50 47
-109 149 -109 188 0 48 -13 83 -31 88 -28 7 -26 61 3 81 17 12 23 28 26 75 4
60 4 60 46 75 82 30 151 28 231 -8z m-395 -223 c0 -19 -3 -24 -10 -17 -6 6 -8
18 -4 27 9 24 14 21 14 -10z m125 -154 c11 -17 -1 -21 -15 -4 -8 9 -8 15 -2
15 6 0 14 -5 17 -11z m441 -24 c-5 -14 -9 -15 -21 -5 -12 10 -13 16 -4 27 15
18 34 1 25 -22z m-387 -131 c38 -31 43 -69 9 -58 -35 10 -96 43 -103 54 -23
37 51 40 94 4z"/>
<path d="M1355 790 c3 -5 16 -10 28 -9 21 0 21 1 2 9 -28 12 -37 12 -30 0z"/>
<path d="M1480 707 c-28 -14 -39 -59 -19 -83 15 -19 64 -18 83 2 23 22 20 60
-6 78 -27 19 -26 19 -58 3z m60 -22 c19 -23 -3 -65 -34 -65 -32 0 -50 24 -42
55 5 19 13 25 35 25 16 0 34 -7 41 -15z"/>
<path d="M1446 514 c-4 -9 -4 -19 -1 -22 2 -3 7 3 11 12 4 9 4 19 1 22 -2 3
-7 -3 -11 -12z"/>
<path d="M1364 375 c-14 -35 41 -60 66 -30 10 12 10 18 0 30 -16 19 -59 19
-66 0z m56 -10 c0 -21 -30 -31 -40 -14 -11 17 -3 29 21 29 10 0 19 -7 19 -15z"/>
<path d="M1495 319 c-11 -17 1 -21 15 -4 8 9 8 15 2 15 -6 0 -14 -5 -17 -11z"/>
</g>
</svg>
