<?xml version="1.0" standalone="no"?>
<!DOCTYPE svg PUBLIC "-//W3C//DTD SVG 20010904//EN"
 "http://www.w3.org/TR/2001/REC-SVG-20010904/DTD/svg10.dtd">
<svg version="1.0" xmlns="http://www.w3.org/2000/svg"
 width="256.000000pt" height="256.000000pt" viewBox="0 0 256.000000 256.000000"
 preserveAspectRatio="xMidYMid meet">

<g transform="translate(0.000000,256.000000) scale(0.100000,-0.100000)"
fill="#000000" stroke="none">
<path d="M1994 2009 c32 -114 38 -160 33 -269 -2 -63 -12 -145 -22 -182 l-17
-68 -572 -2 -571 -3 -3 -127 -3 -128 -105 0 c-100 0 -104 1 -94 19 7 15 6 23
-6 35 -8 9 -18 16 -20 16 -24 0 -87 -41 -157 -104 l-85 -75 -64 67 c-35 37
-72 78 -81 91 -20 29 -29 23 -34 -22 -3 -28 5 -42 62 -104 36 -39 65 -78 65
-87 0 -23 39 -46 70 -39 25 5 29 1 40 -33 39 -124 180 -258 292 -278 42 -8 78
6 78 29 0 18 0 18 43 0 23 -9 38 -24 45 -45 11 -29 13 -30 76 -30 l66 0 0 -30
c0 -18 5 -30 13 -30 7 0 23 -13 34 -28 l21 -29 254 5 c217 4 262 2 311 -12 37
-11 63 -13 74 -8 9 6 27 5 44 -1 21 -8 37 -8 61 1 18 6 43 9 55 6 28 -8 73 19
102 61 57 84 99 258 85 354 -6 38 -5 43 10 38 26 -10 66 10 66 33 0 24 -43 53
-112 76 l-48 16 0 173 c0 129 4 183 15 216 27 77 47 228 41 309 -8 93 -36 202
-55 208 -11 4 -12 -1 -7 -19z m-44 -544 c0 -2 -61 -54 -136 -115 l-136 -110
-281 0 -282 0 -123 108 -123 107 398 5 c219 3 462 6 541 8 78 1 142 0 142 -3z
m-22 -125 l-42 -100 -78 0 c-43 0 -78 2 -78 4 0 5 232 196 237 196 1 0 -17
-45 -39 -100z m49 -206 c-1 -2 -13 -1 -25 3 -18 4 -22 12 -22 49 0 23 -4 45
-10 49 -5 3 -1 25 11 53 46 105 44 107 47 -27 1 -68 1 -125 -1 -127z m-1025
159 l78 -78 0 -227 0 -228 -75 0 c-62 0 -73 2 -69 15 4 8 16 15 28 15 27 0 46
18 46 42 0 11 7 18 19 18 26 0 44 26 37 53 -5 22 -75 94 -122 127 -20 14 -22
28 -29 178 -4 89 -3 162 1 162 5 0 44 -35 86 -77z m-337 -32 c8 -14 -23 -41
-47 -41 -11 0 -18 -5 -15 -12 2 -7 13 -12 23 -11 82 11 179 15 217 9 45 -7 47
-8 47 -42 0 -31 -3 -34 -29 -34 -62 0 -52 -26 34 -95 83 -66 145 -127 145
-142 0 -22 -47 -15 -78 12 -17 14 -35 25 -42 25 -20 0 -5 -24 31 -48 19 -13
34 -31 34 -40 0 -29 -34 -25 -84 12 -53 39 -61 42 -61 24 0 -7 18 -26 40 -42
22 -17 40 -36 40 -43 0 -21 -44 -15 -84 12 -20 14 -41 25 -46 25 -16 0 -11
-16 10 -35 33 -30 26 -49 -17 -42 -111 18 -251 184 -269 321 -4 29 -12 46 -20
46 -8 0 -14 -8 -14 -18 0 -11 -11 -24 -25 -30 -43 -20 -30 9 33 70 61 59 148
128 162 128 5 0 11 -4 15 -9z m1253 -50 c-1 -4 -55 -54 -118 -109 -100 -88
-122 -103 -170 -114 -69 -15 -105 -48 -97 -88 4 -17 1 -32 -6 -39 -9 -7 -63
36 -207 167 l-194 177 264 5 c489 10 532 10 528 1z m32 -41 c0 -13 -7 -20 -20
-20 -23 0 -26 10 -8 28 18 18 28 15 28 -8z m-641 -227 l46 -42 -120 -120 c-66
-67 -123 -121 -127 -121 -5 0 -8 106 -8 236 l0 236 81 -73 c45 -41 102 -93
128 -116z m711 160 c81 -23 162 -61 155 -73 -9 -15 -36 -12 -57 7 -25 23 -31
12 -19 -34 15 -52 14 -138 -3 -199 -18 -67 -73 -170 -104 -195 -44 -34 -71
-20 -51 25 14 31 2 49 -15 22 -26 -43 -59 -76 -77 -76 -25 0 -24 17 6 65 28
45 30 55 13 55 -7 0 -25 -23 -40 -50 -19 -35 -34 -50 -48 -50 -32 0 -34 24 -6
65 14 21 23 42 19 48 -4 6 -13 1 -22 -14 -29 -44 -72 -82 -82 -72 -12 12 10
75 56 158 40 71 58 122 45 130 -4 2 -20 -2 -36 -9 -16 -8 -57 -20 -92 -27 -60
-11 -65 -11 -85 10 -32 32 -13 52 74 77 41 12 122 40 181 63 59 22 114 41 123
41 9 0 15 6 12 13 -2 6 -13 11 -25 9 -26 -4 -65 16 -57 29 7 11 52 5 135 -18z
m-1130 -9 c0 -17 -22 -14 -28 4 -2 7 3 12 12 12 9 0 16 -7 16 -16z m980 1 c15
-18 14 -19 -25 -32 -16 -6 -39 -14 -50 -18 -14 -6 -10 2 14 28 39 42 43 43 61
22z m-370 -276 c21 6 42 17 48 24 7 8 31 11 71 9 54 -3 63 -7 81 -32 l21 -29
-31 -57 c-16 -31 -30 -65 -30 -75 0 -18 -13 -19 -267 -19 l-268 1 123 120 124
120 45 -37 c43 -35 46 -36 83 -25z m249 27 c-9 -20 -15 -23 -26 -15 -19 16
-16 28 10 38 29 11 30 9 16 -23z"/>
<path d="M2324 1978 c3 -24 9 -111 12 -194 8 -192 -2 -244 -102 -497 -41 -104
-74 -193 -74 -198 0 -17 26 -9 48 14 71 76 162 433 162 637 0 67 -9 154 -25
248 -9 49 -28 40 -21 -10z"/>
<path d="M1006 1889 c-14 -70 -19 -256 -7 -263 6 -4 13 -1 15 6 9 28 15 288 7
288 -5 0 -11 -14 -15 -31z"/>
<path d="M715 1799 c35 -110 107 -247 104 -197 -1 28 -85 212 -98 216 -10 3
-11 -2 -6 -19z"/>
<path d="M257 1683 c-13 -21 160 -269 246 -351 22 -22 37 -30 42 -23 4 7 -24
44 -63 86 -38 41 -97 116 -130 167 -85 129 -88 133 -95 121z"/>
<path d="M570 1601 c0 -14 150 -145 157 -137 9 8 -127 146 -144 146 -7 0 -13
-4 -13 -9z"/>
<path d="M2090 1165 c-17 -20 -5 -45 20 -45 11 0 23 7 26 15 6 15 -11 45 -26
45 -4 0 -13 -7 -20 -15z"/>
</g>
</svg>
