<?xml version="1.0" standalone="no"?>
<!DOCTYPE svg PUBLIC "-//W3C//DTD SVG 20010904//EN"
 "http://www.w3.org/TR/2001/REC-SVG-20010904/DTD/svg10.dtd">
<svg version="1.0" xmlns="http://www.w3.org/2000/svg"
 width="256.000000pt" height="256.000000pt" viewBox="0 0 256.000000 256.000000"
 preserveAspectRatio="xMidYMid meet">

<g transform="translate(0.000000,256.000000) scale(0.100000,-0.100000)"
fill="#000000" stroke="none">
<path d="M879 2132 c-323 -356 -501 -590 -640 -840 -32 -59 -59 -115 -59 -125
0 -28 47 -102 87 -137 19 -17 59 -43 88 -57 l53 -26 6 -67 c6 -62 10 -69 42
-92 l35 -25 114 23 114 23 118 -55 c65 -31 162 -74 216 -95 l99 -40 21 27 c77
95 252 326 275 361 14 23 37 45 49 48 17 4 23 13 23 34 0 19 20 55 64 113 l64
85 170 86 c171 87 181 96 182 149 0 9 -20 28 -45 42 -49 29 -55 41 -25 51 12
4 21 16 22 31 0 13 1 28 2 34 1 5 -21 23 -48 40 -45 29 -48 33 -43 64 5 31 2
34 -34 50 -43 19 -79 59 -79 87 0 13 -12 22 -42 30 -24 6 -71 22 -105 36 -56
22 -63 28 -63 53 0 15 -7 43 -15 63 -14 34 -15 35 -52 26 -21 -5 -55 -9 -76
-9 -46 0 -117 38 -117 63 0 20 -16 23 -23 5 -3 -7 -6 1 -6 19 -1 17 -4 38 -7
47 -9 24 -33 19 -40 -9 -7 -28 -8 -29 -35 -14 -11 6 -49 21 -84 34 l-64 25
-142 -158z m264 81 c70 -31 76 -55 15 -53 -79 3 -107 0 -121 -14 -11 -11 -14
-58 -13 -237 l1 -223 33 -8 c25 -7 46 -4 77 8 48 18 134 16 258 -6 60 -10 71
-10 93 5 41 27 54 73 54 190 0 58 1 105 3 105 7 0 172 -62 176 -66 10 -10 -81
-127 -157 -200 l-84 -82 17 -25 c20 -31 72 -71 137 -107 l49 -27 -101 -127
c-56 -69 -105 -126 -109 -126 -4 0 -16 10 -27 21 -22 26 -90 58 -120 59 -16 0
-23 8 -27 30 -13 65 -79 91 -124 48 -27 -26 -30 -73 -6 -100 18 -21 69 -24
107 -6 20 8 36 8 68 -1 48 -14 108 -56 108 -74 -1 -24 -304 -357 -326 -357 -8
0 -59 22 -114 50 -237 119 -714 320 -760 320 -11 0 -20 3 -20 7 0 12 100 184
153 263 120 179 316 419 533 655 129 140 106 132 227 78z m97 6 c0 -20 -15
-26 -25 -9 -9 15 3 43 15 35 5 -3 10 -15 10 -26z m16 -71 c5 -8 2 -9 -10 -5
-10 4 -22 7 -27 7 -5 0 -9 7 -9 15 0 12 4 14 19 5 11 -5 23 -15 27 -22z m-78
-14 c13 -4 22 -14 22 -26 0 -59 53 -80 72 -27 8 25 15 30 32 25 11 -3 58 -6
103 -6 l82 0 3 -172 c2 -95 -1 -179 -6 -185 -11 -17 -94 -16 -176 2 -86 19
-187 19 -224 0 -15 -8 -30 -15 -32 -15 -2 0 -4 90 -4 199 0 150 3 201 13 204
17 8 88 8 115 1z m82 -35 c0 -22 -4 -23 -31 -9 -28 16 -24 38 6 32 16 -3 25
-11 25 -23z m534 -273 l38 -24 -95 -79 c-52 -43 -115 -92 -139 -110 l-45 -32
-22 23 -22 23 116 111 c63 62 118 112 122 112 5 0 25 -11 47 -24z m93 -121
c18 -11 33 -23 33 -27 0 -7 -136 -121 -188 -157 l-34 -24 -49 24 c-70 32 -76
43 -41 68 44 31 236 141 242 138 3 -1 20 -11 37 -22z m73 -181 c0 -7 -153
-113 -260 -179 -69 -43 -136 -85 -150 -94 -24 -15 -25 -15 -9 4 9 11 51 65 94
120 65 85 90 109 163 156 l87 55 38 -29 c20 -17 37 -31 37 -33z m-397 -306
c-5 -7 -19 -26 -31 -42 -12 -16 -22 -24 -22 -18 0 11 48 72 57 72 3 0 1 -6 -4
-12z m-1235 -60 c52 -18 62 -25 62 -45 0 -13 -2 -23 -4 -23 -2 0 -34 13 -70
30 -36 16 -66 26 -66 22 0 -4 29 -20 65 -36 65 -28 90 -47 83 -66 -4 -13 -113
39 -155 74 -18 15 -33 36 -33 47 0 26 38 25 118 -3z m1125 -85 c-81 -103 -243
-290 -281 -326 l-39 -38 -84 34 c-154 63 -189 80 -189 87 0 4 16 10 35 12 28
3 58 -7 133 -44 53 -26 102 -48 108 -48 13 0 344 370 344 385 0 13 -16 -4
-113 -117 -57 -68 -133 -154 -168 -192 l-64 -69 -90 45 c-87 44 -89 46 -58 52
23 5 44 1 82 -18 28 -14 57 -26 65 -26 8 0 88 81 178 181 155 172 163 179 171
155 7 -22 2 -33 -30 -73z m-910 1 c62 -25 181 -78 266 -117 129 -60 151 -73
130 -78 -13 -4 -103 -7 -199 -8 -121 -1 -194 -6 -233 -16 -32 -8 -59 -15 -61
-15 -2 0 -7 41 -11 92 -4 50 -10 113 -14 140 -5 28 -4 48 1 48 5 0 60 -21 121
-46z"/>
<path d="M1086 1075 c-56 -69 -75 -99 -68 -108 6 -7 31 -23 56 -37 l46 -25 73
79 c39 43 75 85 80 92 5 9 -10 26 -46 54 -30 22 -56 40 -59 40 -2 0 -39 -43
-82 -95z m154 5 c0 -3 -28 -36 -63 -74 l-62 -69 -33 17 c-17 9 -32 21 -32 27
0 6 27 44 61 84 l61 74 34 -27 c19 -15 34 -29 34 -32z"/>
<path d="M1112 2008 c3 -7 24 -23 49 -36 38 -21 52 -23 109 -18 36 4 86 6 113
6 27 -1 47 4 47 10 0 5 -9 10 -20 10 -10 0 -30 5 -43 11 -18 8 -35 7 -71 -5
-51 -17 -79 -14 -138 15 -44 22 -51 23 -46 7z"/>
<path d="M1155 1890 c-3 -5 8 -16 24 -24 34 -18 151 -18 151 0 0 19 -31 25
-66 14 -25 -9 -40 -8 -68 4 -20 8 -38 11 -41 6z"/>
<path d="M1773 1127 c-140 -151 -246 -275 -263 -306 -13 -26 24 -67 97 -107
29 -16 53 -33 53 -39 -1 -5 -14 -25 -29 -43 l-29 -33 21 -39 c17 -30 37 -45
97 -75 91 -45 215 -116 292 -167 31 -21 61 -38 66 -38 5 0 72 100 149 223 117
186 141 230 145 270 l6 49 -45 26 c-80 48 -78 43 -40 92 27 35 34 55 34 88 l0
42 -200 100 c-110 55 -205 100 -211 100 -6 0 -70 -64 -143 -143z m250 66 c96
-44 204 -99 254 -129 22 -14 22 -15 -50 -127 -40 -61 -110 -172 -156 -244 -45
-73 -85 -133 -88 -133 -3 0 -22 13 -42 29 -59 47 -199 129 -303 179 -54 25
-98 49 -98 52 0 13 365 420 376 420 3 0 51 -21 107 -47z m303 -370 c21 -13 19
-18 -114 -231 -74 -119 -138 -221 -143 -226 -4 -4 -52 22 -108 59 -55 36 -149
92 -210 123 l-109 57 20 28 c11 15 25 27 31 27 7 0 77 -38 156 -85 79 -47 146
-85 150 -85 3 0 30 42 60 93 30 50 83 136 118 190 l64 97 32 -16 c18 -10 42
-23 53 -31z"/>
<path d="M1850 1076 c0 -31 34 -56 75 -56 49 0 94 -17 132 -50 35 -31 63 -36
71 -12 2 6 -4 12 -13 12 -10 0 -35 16 -56 35 -34 31 -46 35 -92 35 -55 0 -97
20 -97 46 0 8 -4 14 -10 14 -5 0 -10 -11 -10 -24z"/>
<path d="M1800 914 c0 -8 13 -29 29 -45 22 -22 39 -29 67 -29 21 0 46 -7 56
-17 22 -19 37 -9 22 15 -7 10 -34 21 -64 27 -37 7 -58 18 -74 38 -25 31 -36
34 -36 11z"/>
</g>
</svg>
