<?xml version="1.0" standalone="no"?>
<!DOCTYPE svg PUBLIC "-//W3C//DTD SVG 20010904//EN"
 "http://www.w3.org/TR/2001/REC-SVG-20010904/DTD/svg10.dtd">
<svg version="1.0" xmlns="http://www.w3.org/2000/svg"
 width="256.000000pt" height="256.000000pt" viewBox="0 0 256.000000 256.000000"
 preserveAspectRatio="xMidYMid meet">

<g transform="translate(0.000000,256.000000) scale(0.100000,-0.100000)"
fill="#000000" stroke="none">
<path d="M991 2336 c-114 -165 -377 -309 -619 -340 l-97 -12 -3 -34 c-6 -63
17 -354 39 -480 69 -406 265 -763 541 -984 123 -99 180 -130 226 -121 133 24
422 222 609 418 194 203 287 402 343 730 22 129 43 416 38 512 l-3 59 -67 38
c-64 36 -68 37 -125 28 -88 -15 -271 -12 -363 6 -151 28 -299 92 -415 179 -33
25 -63 45 -67 45 -4 0 -21 -20 -37 -44z m111 -36 c186 -142 493 -216 742 -180
38 6 71 8 73 6 10 -9 -19 -461 -36 -581 -33 -223 -89 -412 -171 -575 -84 -168
-255 -341 -477 -483 -106 -68 -172 -99 -197 -93 -38 10 -229 161 -309 245 -89
94 -190 242 -247 364 -112 238 -180 566 -180 864 l0 92 33 5 c17 3 55 8 82 12
68 8 197 49 275 88 107 52 180 106 265 193 44 45 83 82 87 82 4 1 31 -17 60
-39z"/>
<path d="M970 2088 c-119 -130 -254 -198 -442 -223 l-48 -6 0 -47 c0 -83 20
-285 35 -372 34 -187 107 -378 200 -522 82 -126 283 -308 341 -308 23 0 162
84 251 153 196 150 315 386 368 725 15 98 38 479 30 492 -2 4 -62 5 -133 2
-99 -3 -148 -1 -206 12 -89 20 -213 79 -273 130 -22 20 -45 36 -50 36 -4 -1
-37 -33 -73 -72z m277 -83 c101 -41 214 -59 330 -52 l103 6 0 -103 c0 -57 -3
-118 -6 -136 l-7 -32 -13 31 -13 31 -539 0 -539 0 -26 -57 -25 -58 -1 103 c-1
99 0 102 22 102 58 1 171 34 256 76 76 37 109 61 175 127 l81 82 72 -48 c39
-26 98 -58 130 -72z m375 -385 c-2 -58 -6 -107 -8 -109 -15 -15 -28 28 -29 92
l0 72 -431 3 -431 2 -12 -26 c-8 -17 -11 -71 -10 -146 1 -65 -3 -118 -7 -118
-5 0 -10 43 -12 95 l-3 95 -27 0 c-62 0 -72 9 -72 59 0 25 3 56 6 69 l6 22
517 -2 516 -3 -3 -105z m-1052 25 c0 -38 -3 -45 -20 -45 -18 0 -19 1 -2 45 9
25 18 45 19 45 2 0 3 -20 3 -45z m1012 -128 c49 -155 52 -197 10 -197 -15 0
-27 29 -67 155 l-48 155 -69 0 -69 0 7 -52 c3 -29 10 -80 15 -113 5 -33 9 -63
9 -67 0 -5 -13 -8 -29 -8 -32 0 -31 -4 -52 153 l-12 87 -179 0 c-147 0 -178
-2 -178 -14 0 -8 -3 -21 -6 -30 -5 -14 8 -16 105 -16 l111 0 0 -130 0 -130
-134 0 -134 0 -6 -35 c-6 -30 -11 -35 -34 -35 -26 0 -28 2 -24 35 l4 35 -101
0 c-56 0 -101 2 -101 5 0 2 5 15 12 29 l11 26 221 2 221 3 3 73 3 72 -116 0
c-63 0 -115 2 -115 4 0 2 7 23 15 46 8 23 15 46 15 51 0 5 -34 9 -75 9 -41 0
-75 2 -75 4 0 2 3 12 6 20 6 15 48 16 407 14 l401 -3 48 -148z m78 35 c-12
-97 -20 -86 -19 24 1 90 2 96 14 69 9 -21 10 -49 5 -93z m-865 51 c32 -15 41
-30 35 -58 -1 -5 -3 -44 -3 -85 l-2 -75 -51 -3 -51 -3 -6 83 c-12 147 -11 158
18 158 13 0 40 -8 60 -17z m465 -93 l0 -111 -57 3 -58 3 -3 88 -3 87 -89 0
c-79 0 -91 2 -100 20 -10 20 -8 20 150 20 l160 0 0 -110z m210 0 l0 -110 -44
0 -44 0 -10 71 c-9 59 -8 78 5 110 14 36 18 39 54 39 l39 0 0 -110z m-810 51
c0 -5 -8 -18 -17 -30 -16 -18 -24 -20 -68 -13 -41 6 -51 11 -53 30 -3 21 0 22
67 22 39 0 71 -4 71 -9z m899 -311 l0 -75 -39 105 c-35 93 -39 115 -39 195 l1
90 39 -120 c31 -97 38 -134 38 -195z m-889 209 c0 -60 -3 -80 -12 -77 -26 9
-18 158 7 158 3 0 5 -36 5 -81z m360 19 c11 -18 20 -48 20 -65 l0 -33 -105 0
-105 0 0 65 0 65 85 0 85 0 20 -32z m-400 -37 c0 -33 -4 -61 -9 -63 -6 -1 -18
-23 -29 -48 l-19 -45 -16 70 c-9 39 -19 87 -22 108 l-7 37 51 0 51 0 0 -59z
m1000 40 c11 -22 14 -78 3 -67 -4 4 -13 25 -19 47 -12 41 -2 53 16 20z m-332
-126 l0 -50 -13 54 c-7 29 -11 70 -7 90 l6 36 7 -40 c5 -22 8 -62 7 -90z m-67
6 c30 -19 48 -38 51 -54 l5 -25 -34 16 c-31 15 -37 15 -61 1 -15 -8 -32 -26
-39 -39 -11 -22 -13 -16 -13 53 0 73 1 77 23 77 12 0 43 -13 68 -29z m139 -50
c0 -61 -3 -70 -20 -76 -33 -10 -40 3 -40 76 l0 69 30 0 30 0 0 -69z m83 19
c44 -33 63 -65 91 -157 l7 -23 -139 0 -139 0 16 35 c14 30 21 34 54 35 l37 0
0 80 c0 90 -5 88 73 30z m157 -27 c0 -5 -7 -28 -14 -53 l-15 -45 0 53 c-1 40
2 52 14 52 8 0 15 -3 15 -7z m-866 -14 c27 -13 36 -35 36 -96 l0 -43 -78 0
c-75 0 -79 1 -90 25 -7 14 -12 48 -12 75 l0 50 60 0 c32 0 70 -5 84 -11z m376
-64 l0 -75 -130 0 -130 0 1 43 c2 73 11 91 49 98 19 4 74 7 123 8 l87 1 0 -75z
m-270 -35 c0 -38 -2 -40 -30 -40 -28 0 -30 3 -30 34 0 35 1 35 53 45 4 0 7
-17 7 -39z m318 -22 c14 -16 13 -18 -6 -18 -18 0 -22 6 -21 33 0 17 3 25 6 17
3 -8 12 -23 21 -32z m382 -40 c-1 -35 -13 -36 -455 -43 l-441 -8 -12 27 c-7
15 -12 29 -12 31 0 3 207 5 460 5 361 0 460 -3 460 -12z m-27 -73 c-4 -12 -29
-15 -129 -15 -104 0 -124 -2 -124 -15 0 -12 19 -15 110 -15 61 0 110 -3 110
-6 0 -13 -65 -98 -109 -142 -45 -45 -54 -49 -111 -55 -35 -4 -145 -7 -245 -7
l-183 0 -30 35 c-33 36 -112 150 -112 159 0 4 87 6 194 6 119 0 197 4 201 10
4 7 -66 10 -203 10 -170 0 -211 3 -215 14 -4 10 7 16 36 21 40 7 794 23 809
17 4 -1 5 -9 1 -17z m-491 -322 c142 -41 142 -40 52 -89 -31 -17 -32 -16 -75
13 -64 45 -136 112 -120 113 8 0 72 -17 143 -37z"/>
<path d="M1495 360 c-318 -24 -565 -74 -565 -113 0 -85 821 -85 1210 0 81 18
135 37 145 52 9 16 -35 39 -100 51 -74 15 -541 21 -690 10z"/>
</g>
</svg>
