<?xml version="1.0" standalone="no"?>
<!DOCTYPE svg PUBLIC "-//W3C//DTD SVG 20010904//EN"
 "http://www.w3.org/TR/2001/REC-SVG-20010904/DTD/svg10.dtd">
<svg version="1.0" xmlns="http://www.w3.org/2000/svg"
 width="256.000000pt" height="256.000000pt" viewBox="0 0 256.000000 256.000000"
 preserveAspectRatio="xMidYMid meet">

<g transform="translate(0.000000,256.000000) scale(0.100000,-0.100000)"
fill="#000000" stroke="none">
<path d="M938 2363 c-18 -22 -338 -903 -338 -933 0 -11 7 -20 15 -20 8 0 15
-2 15 -5 0 -2 -25 -91 -54 -197 -79 -277 -156 -591 -156 -633 0 -46 14 -46
150 0 l104 35 81 -52 c44 -28 99 -63 123 -77 26 -16 44 -36 48 -51 13 -60 40
-67 134 -34 l45 16 230 -75 c177 -58 233 -80 241 -96 19 -36 46 -61 67 -61 11
0 49 15 86 33 40 21 101 40 156 51 139 26 249 59 253 77 2 9 -23 60 -55 115
-43 73 -68 130 -92 214 -46 157 -156 496 -197 603 -19 49 -34 90 -34 91 0 2
18 8 40 15 46 14 51 27 16 42 -13 6 -27 21 -30 32 -14 54 -332 868 -346 887
-24 32 -77 40 -291 40 -174 0 -198 -2 -211 -17z m471 -30 c13 -12 74 -154 167
-393 173 -444 201 -527 187 -541 -11 -11 -316 -89 -349 -89 -24 0 -58 30 -78
68 -7 15 -39 108 -69 207 -59 189 -164 476 -240 658 l-46 107 204 0 c178 0
205 -2 224 -17z m-422 -60 c12 -29 12 -35 1 -26 -39 33 -71 -58 -49 -137 7
-24 8 -24 41 23 19 26 37 47 41 47 7 0 28 -52 98 -242 l48 -127 -49 -143 c-27
-78 -49 -143 -51 -144 -1 -1 -58 -12 -127 -23 -69 -11 -167 -29 -219 -40 l-93
-19 5 28 c3 15 42 121 86 236 43 115 109 295 145 399 86 247 85 244 97 222 6
-9 17 -34 26 -54z m240 -645 c22 -73 40 -134 39 -135 -1 -2 -160 29 -164 33
-6 4 72 234 78 234 4 0 24 -60 47 -132z m-47 -223 c52 -52 90 -95 84 -95 -16
0 -578 111 -582 115 -3 3 237 49 333 64 33 5 62 9 65 10 3 0 48 -42 100 -94z
m-366 -35 c54 -11 100 -20 102 -20 2 0 0 -22 -3 -49 -8 -66 2 -101 27 -101 14
0 20 7 21 23 1 12 5 5 8 -15 5 -29 9 -36 20 -28 12 7 12 11 2 24 -12 14 -10
16 8 16 34 0 24 46 -23 99 l-21 24 25 -6 c14 -3 79 -16 145 -28 66 -12 122
-23 124 -25 2 -2 -27 -80 -65 -173 l-67 -171 -32 48 c-18 26 -40 53 -49 61
-14 11 -17 9 -26 -15 -6 -15 -10 -51 -8 -78 3 -49 4 -51 31 -51 22 1 27 -3 24
-17 -6 -20 -5 -20 17 -12 14 5 13 10 -6 38 -22 31 -22 31 -1 13 12 -11 27 -16
32 -12 6 3 2 -18 -10 -47 -12 -29 -49 -131 -82 -226 -59 -169 -61 -173 -73
-143 -19 46 -189 581 -223 703 -16 58 -33 127 -36 153 -7 45 -7 46 16 40 13
-3 68 -14 123 -25z m969 -145 c79 -214 226 -679 242 -768 5 -24 3 -42 -5 -52
-7 -8 -88 -55 -182 -105 -117 -63 -178 -90 -196 -88 -25 3 -30 12 -64 113 -79
237 -284 935 -275 940 1 1 59 11 129 24 70 12 164 33 210 45 46 12 86 20 90
17 4 -3 27 -60 51 -126z m-1103 -5 c18 -63 61 -207 96 -319 35 -113 63 -206
61 -207 -7 -7 -357 -124 -370 -124 -9 0 -18 4 -21 8 -8 13 99 438 181 722 9
30 17 51 19 45 1 -5 17 -62 34 -125z m630 -85 c17 -66 51 -188 76 -272 65
-223 58 -295 -31 -333 -25 -11 -110 -42 -191 -70 -140 -48 -204 -61 -204 -40
0 33 306 848 315 838 2 -2 17 -57 35 -123z m174 -600 c5 -19 2 -20 -33 -17
l-39 4 21 43 22 42 11 -26 c6 -14 14 -35 18 -46z"/>
<path d="M1200 2271 c0 -17 4 -33 10 -36 6 -4 5 -13 -2 -25 -9 -14 -9 -25 0
-44 12 -27 47 -35 55 -13 3 6 6 0 6 -15 1 -18 6 -28 16 -28 17 0 20 21 5 36
-7 7 -4 10 12 10 14 -1 24 6 26 17 4 21 -24 57 -45 57 -7 0 -13 8 -13 18 0 23
-30 52 -53 52 -12 0 -17 -9 -17 -29z"/>
<path d="M1347 1963 c-3 -5 -5 -36 -5 -70 0 -48 4 -66 19 -79 15 -14 21 -14
34 -4 13 11 15 9 15 -13 0 -20 4 -25 15 -21 10 4 13 13 10 25 -5 14 -2 17 9
13 22 -8 31 21 18 52 -7 14 -20 24 -32 24 -13 0 -20 7 -20 20 0 33 -50 74 -63
53z"/>
<path d="M1454 1616 c-3 -8 -1 -23 4 -32 5 -10 7 -34 5 -54 -6 -45 17 -71 48
-52 17 11 19 9 19 -13 0 -14 4 -25 8 -25 16 0 21 13 12 30 -8 15 -6 17 10 13
13 -3 22 1 26 11 7 19 -20 66 -39 66 -6 0 -19 15 -27 33 -16 35 -56 49 -66 23z"/>
<path d="M1007 1651 c-41 -46 -60 -78 -53 -90 3 -4 24 -8 46 -8 29 0 44 5 50
18 12 22 13 119 1 119 -5 0 -25 -18 -44 -39z"/>
<path d="M761 1624 c-23 -26 -44 -58 -47 -71 -8 -29 8 -49 28 -37 7 5 21 7 31
6 32 -6 47 17 47 72 0 80 -11 85 -59 30z"/>
<path d="M1570 1171 c0 -15 -5 -42 -11 -59 -10 -30 -8 -34 36 -78 25 -26 47
-45 48 -43 2 2 8 31 15 64 l12 59 -42 43 c-23 24 -46 43 -50 43 -4 0 -8 -13
-8 -29z"/>
<path d="M1730 621 c0 -15 -5 -42 -11 -58 -10 -29 -8 -33 38 -76 l48 -45 12
61 13 62 -42 42 c-23 24 -46 43 -50 43 -4 0 -8 -13 -8 -29z"/>
</g>
</svg>
