<?xml version="1.0" standalone="no"?>
<!DOCTYPE svg PUBLIC "-//W3C//DTD SVG 20010904//EN"
 "http://www.w3.org/TR/2001/REC-SVG-20010904/DTD/svg10.dtd">
<svg version="1.0" xmlns="http://www.w3.org/2000/svg"
 width="256.000000pt" height="256.000000pt" viewBox="0 0 256.000000 256.000000"
 preserveAspectRatio="xMidYMid meet">

<g transform="translate(0.000000,256.000000) scale(0.100000,-0.100000)"
fill="#000000" stroke="none">
<path d="M383 2348 c15 -39 131 -188 139 -180 11 11 -108 182 -131 190 -9 3
-12 0 -8 -10z"/>
<path d="M1087 2105 l-156 -73 -38 19 c-40 20 -148 38 -224 39 -45 0 -45 0
-41 30 4 28 2 30 -27 30 -18 0 -46 -7 -64 -16 -41 -21 -154 -100 -189 -131
l-26 -25 -42 54 c-24 29 -49 63 -57 75 -21 31 -29 22 -31 -31 -2 -37 4 -52 36
-93 20 -26 43 -61 50 -76 14 -33 48 -48 80 -36 13 5 25 9 26 9 2 0 6 -27 9
-59 7 -82 46 -160 112 -231 66 -69 130 -102 199 -103 39 -1 52 4 66 21 12 14
29 22 49 22 19 0 40 9 53 22 12 12 31 23 41 23 23 2 39 24 33 48 -8 35 11 16
34 -33 19 -41 32 -54 67 -70 44 -19 44 -19 87 2 l43 21 32 -24 c76 -56 171 -9
171 85 0 42 1 44 46 61 25 9 48 24 51 31 3 8 -9 50 -27 94 -34 84 -65 116
-104 106 -65 -16 -91 71 -35 118 l31 26 -21 53 c-14 33 -32 59 -49 69 -27 16
-31 15 -185 -57z m166 -79 c-22 -19 -28 -32 -28 -64 0 -59 34 -92 94 -92 l46
0 29 -70 c16 -39 27 -72 25 -73 -2 -2 -23 -12 -47 -22 -36 -16 -42 -22 -37
-39 19 -58 17 -75 -8 -100 -15 -14 -37 -26 -50 -26 -29 0 -77 35 -77 56 0 27
-26 25 -94 -6 -37 -16 -71 -30 -75 -30 -4 0 -17 20 -28 44 -18 37 -20 45 -7
50 17 6 18 39 3 69 -6 12 -33 45 -60 72 -26 28 -59 76 -73 107 l-25 57 127 61
c70 33 159 76 197 94 l70 34 23 -49 23 -49 -28 -24z m-655 87 c-2 -10 -18 -22
-36 -28 -18 -5 -31 -13 -30 -17 2 -4 68 -9 148 -11 111 -2 154 -7 185 -21 l40
-18 -40 -21 c-22 -11 -51 -21 -65 -21 -20 -1 -26 -7 -28 -32 -3 -28 7 -41 103
-129 79 -73 105 -104 103 -119 -4 -29 -41 -23 -88 14 -53 42 -60 20 -9 -24 27
-23 39 -40 36 -51 -11 -26 -49 -17 -98 25 -63 53 -76 33 -15 -22 37 -32 44
-43 35 -54 -19 -23 -47 -16 -89 22 -47 42 -73 37 -35 -8 29 -35 31 -46 8 -55
-27 -11 -119 45 -178 108 -69 75 -115 170 -123 257 -7 64 -27 95 -34 50 -3
-23 -51 -49 -65 -35 -15 15 131 137 222 186 48 26 57 26 53 4z m235 -198 c17
-35 17 -35 -3 -25 -18 9 -40 40 -40 54 0 3 6 6 13 6 7 0 21 -16 30 -35z"/>
<path d="M1637 1825 c-49 -52 -83 -95 -75 -95 14 0 188 169 188 183 0 23 -35
-5 -113 -88z"/>
<path d="M1728 1722 c-66 -22 -108 -42 -108 -50 0 -8 7 -11 18 -8 184 59 241
84 205 92 -4 1 -56 -14 -115 -34z"/>
<path d="M1670 1601 c0 -15 28 -21 91 -21 46 0 59 3 59 15 0 12 -15 15 -75 15
-41 0 -75 -4 -75 -9z"/>
<path d="M1820 1500 c-22 -5 -48 -23 -70 -47 l-35 -39 -118 24 c-66 13 -121
21 -124 18 -3 -2 -11 -38 -19 -78 -13 -66 -13 -74 2 -83 62 -38 74 -78 40
-130 -15 -23 -23 -26 -59 -23 l-42 3 -10 -69 c-5 -38 -15 -71 -21 -73 -6 -2
-96 10 -200 26 -256 40 -314 46 -314 32 0 -6 4 -11 9 -11 5 0 12 -13 16 -29 4
-19 18 -37 41 -50 26 -16 34 -27 34 -50 0 -44 -49 -81 -106 -81 -52 0 -45 12
-89 -156 l-32 -127 39 -52 39 -53 93 -17 c90 -16 95 -18 117 -53 47 -73 169
-105 234 -62 17 11 37 25 46 31 12 9 51 5 170 -15 85 -14 155 -22 157 -18 13
40 43 80 70 95 28 16 37 17 62 7 28 -12 46 -40 83 -131 13 -31 21 -37 53 -42
22 -3 93 -15 159 -26 66 -12 123 -21 126 -21 4 0 21 78 39 173 18 94 36 178
39 185 4 7 22 20 41 30 58 29 75 63 75 147 0 66 -3 76 -31 111 l-30 39 26 155
27 155 -26 47 -25 46 -150 29 -150 28 -8 38 c-18 89 -91 136 -178 117z m90
-35 c41 -21 60 -53 60 -100 l0 -41 133 -23 c72 -13 140 -27 150 -30 17 -6 -23
-37 -363 -276 -91 -64 -270 -182 -346 -228 -9 -5 -184 182 -184 197 0 2 8 6
19 9 14 3 20 18 26 62 8 70 14 87 26 79 17 -10 77 17 93 41 24 37 21 97 -7
127 -13 14 -29 27 -35 29 -9 3 -10 18 -6 50 10 74 8 73 129 49 60 -12 114 -24
120 -26 7 -3 18 9 25 25 25 60 100 87 160 56z m340 -401 c-31 -152 -31 -159
-14 -169 10 -5 33 -24 51 -41 28 -27 33 -39 33 -77 0 -29 -7 -53 -20 -69 -23
-30 -72 -52 -100 -45 -11 3 -22 2 -24 -1 -2 -4 -16 -74 -30 -157 -34 -192 -32
-186 -58 -144 -35 57 -278 501 -278 508 1 3 38 33 83 66 45 33 149 113 231
177 82 65 151 116 154 114 2 -2 -11 -75 -28 -162z m-1112 -56 c78 -12 142 -24
141 -27 0 -9 -511 -392 -516 -388 -2 3 8 53 24 111 27 104 28 106 57 106 43 0
109 35 129 69 21 36 22 83 2 121 -19 37 -25 37 163 8z m282 -173 c57 -75 110
-135 119 -135 9 0 67 34 128 75 62 41 115 75 117 75 2 0 63 -107 134 -237 71
-131 139 -254 151 -274 l22 -37 -63 13 c-35 7 -89 18 -120 25 -57 11 -58 12
-58 47 0 47 -25 87 -70 112 -44 25 -78 26 -125 7 -29 -13 -66 -55 -78 -90 -2
-6 -51 0 -113 12 -119 24 -154 27 -154 13 0 -21 -53 -70 -87 -82 -45 -15 -99
0 -137 37 -20 21 -26 37 -26 70 0 50 15 43 -159 74 -63 11 -116 21 -118 23 -3
4 518 405 528 406 3 1 52 -60 109 -134z"/>
<path d="M930 1415 c-36 -7 -84 -13 -107 -14 -47 -1 -73 -9 -73 -22 0 -22 270
15 278 39 4 14 -9 14 -98 -3z"/>
<path d="M974 1262 c-52 -61 -94 -117 -94 -125 0 -20 25 2 85 74 39 46 63 85
58 90 -5 5 -26 -12 -49 -39z"/>
</g>
</svg>
