<?xml version="1.0" standalone="no"?>
<!DOCTYPE svg PUBLIC "-//W3C//DTD SVG 20010904//EN"
 "http://www.w3.org/TR/2001/REC-SVG-20010904/DTD/svg10.dtd">
<svg version="1.0" xmlns="http://www.w3.org/2000/svg"
 width="256.000000pt" height="256.000000pt" viewBox="0 0 256.000000 256.000000"
 preserveAspectRatio="xMidYMid meet">

<g transform="translate(0.000000,256.000000) scale(0.100000,-0.100000)"
fill="#000000" stroke="none">
<path d="M690 2374 c-8 -1 -35 -5 -60 -9 -38 -5 -47 -11 -62 -39 -13 -26 -14
-43 -7 -72 12 -55 11 -63 -8 -58 -11 3 -34 -10 -59 -33 l-41 -38 7 -270 c7
-251 10 -280 39 -415 27 -127 30 -156 25 -236 -7 -101 -12 -93 59 -108 63 -14
309 -36 408 -36 l107 0 15 -32 c8 -18 17 -39 19 -47 2 -9 92 -44 224 -88 252
-85 597 -194 599 -191 1 2 16 89 34 193 36 206 102 478 149 618 25 70 29 94
21 120 -5 17 -9 44 -9 58 0 43 -108 86 -350 139 -74 17 -155 35 -179 42 l-43
11 5 141 c3 78 12 164 20 191 17 62 2 95 -44 95 -22 0 -32 7 -41 26 -11 23
-16 25 -48 20 -98 -18 -225 -17 -424 3 -188 19 -314 24 -356 15z m440 -47 c69
-7 121 -15 115 -18 -5 -4 -104 -10 -220 -14 -116 -4 -239 -10 -275 -14 -63 -6
-64 -6 -73 -41 -4 -19 -9 -228 -11 -465 -2 -236 -7 -440 -11 -452 -5 -16 -15
-23 -33 -23 l-25 0 6 163 c4 89 14 223 22 297 19 170 19 381 0 485 -8 44 -15
83 -15 87 0 4 12 9 28 12 43 7 355 -3 492 -17z m350 -7 c-8 -5 -33 -9 -55 -9
-39 1 -39 2 -10 9 17 4 41 8 55 9 20 0 22 -1 10 -9z m97 -63 c2 -3 -2 -50 -11
-105 -21 -131 -20 -244 4 -497 11 -116 20 -263 20 -327 l0 -118 -53 0 c-30 0
-150 -7 -268 -16 -220 -16 -411 -14 -506 6 l-50 11 -9 322 c-10 378 -11 703
-3 711 3 4 49 1 101 -6 82 -10 121 -9 299 10 186 19 460 24 476 9z m-994 -137
c14 -73 13 -402 -2 -590 -17 -214 -12 -253 37 -258 25 -3 32 -8 30 -20 -1 -10
8 -28 21 -41 41 -41 159 -54 426 -47 127 3 254 9 283 12 52 7 54 6 50 -17 -3
-24 -3 -24 -243 -41 -342 -24 -475 -22 -618 8 -27 6 -28 8 -22 42 10 54 7 319
-5 457 -12 131 -15 456 -4 511 9 51 36 41 47 -16z m1153 -300 c207 -45 384
-101 384 -121 0 -4 -16 -40 -35 -80 -48 -103 -79 -219 -120 -448 -41 -225 -73
-351 -90 -351 -6 0 -123 29 -260 64 -240 62 -359 101 -448 149 l-42 22 134 3
134 3 28 30 c18 19 29 42 29 59 0 26 3 28 57 32 47 4 86 -3 212 -39 85 -23
157 -41 159 -38 12 12 -22 145 -51 199 -37 69 -99 119 -167 136 l-46 11 -17
187 c-20 213 -20 212 -9 212 4 0 71 -14 148 -30z m-20 -431 c52 -32 86 -98 92
-178 l4 -68 -93 24 c-51 13 -97 27 -102 32 -4 4 -5 56 -1 115 l7 108 30 -6
c16 -3 45 -15 63 -27z"/>
<path d="M1207 2210 c-20 -29 -87 -39 -106 -16 -7 9 -18 16 -23 16 -6 0 -4 -7
3 -16 11 -14 11 -18 -4 -29 -23 -17 -22 -28 2 -15 17 9 20 6 24 -22 4 -30 5
-31 12 -11 7 21 9 22 37 7 16 -8 33 -26 38 -39 24 -62 65 5 58 94 -3 50 -19
62 -41 31z m-17 -66 c0 -14 -3 -15 -17 -3 -10 7 -20 15 -22 16 -2 2 5 3 17 3
14 0 22 -6 22 -16z"/>
<path d="M1064 1920 c-80 -32 -70 -179 14 -211 58 -22 132 33 132 98 0 85 -74
142 -146 113z m94 -43 c12 -13 25 -37 28 -55 5 -26 1 -36 -24 -62 -44 -44 -91
-40 -117 11 -21 39 -19 72 6 103 27 34 77 36 107 3z"/>
<path d="M1072 1655 c-66 -18 -134 -64 -167 -113 -28 -40 -61 -139 -50 -150 7
-8 369 -4 468 5 l68 6 -7 31 c-34 164 -169 260 -312 221z m143 -34 c52 -23
107 -85 130 -145 10 -25 16 -48 14 -50 -2 -2 -111 -7 -241 -11 -196 -5 -238
-4 -238 7 0 32 51 117 90 151 76 64 169 83 245 48z"/>
<path d="M1649 1659 c-24 -25 -29 -40 -29 -79 0 -65 28 -99 88 -107 38 -5 47
-2 72 22 40 38 46 74 22 129 -34 75 -101 90 -153 35z m102 -8 c33 -27 33 -90
0 -125 -36 -39 -76 -34 -100 11 -19 37 -13 73 18 104 34 34 50 36 82 10z"/>
<path d="M1055 752 c-50 -32 -136 -92 -190 -133 -145 -109 -209 -151 -314
-203 -51 -26 -90 -50 -87 -53 4 -4 -7 -21 -24 -38 l-30 -31 100 -12 c56 -7
172 -27 259 -46 270 -60 449 -73 506 -37 17 10 106 77 198 149 178 139 250
181 321 189 42 5 45 8 65 56 24 56 21 61 -37 72 -18 3 -105 28 -193 55 -179
56 -276 76 -399 84 l-85 6 -90 -58z m351 4 c62 -13 403 -114 413 -122 1 -1
-30 -19 -70 -40 -106 -53 -170 -99 -289 -210 -58 -53 -129 -115 -158 -137
l-53 -40 -83 7 c-124 9 -224 30 -427 91 -101 30 -191 58 -199 61 -9 3 11 19
55 43 99 53 149 86 240 155 44 34 131 96 195 139 l115 78 95 -5 c52 -3 127
-12 166 -20z"/>
<path d="M1241 693 c-19 -10 -38 -28 -43 -41 -22 -63 149 -125 202 -72 27 27
26 81 0 105 -30 27 -116 31 -159 8z m133 -19 c23 -9 20 -31 -8 -49 -36 -24
-129 -17 -134 9 -3 11 4 26 14 33 18 13 100 18 128 7z"/>
<path d="M1002 541 c-53 -18 -129 -79 -115 -92 5 -4 69 -30 143 -59 74 -29
157 -64 184 -77 l48 -25 30 29 c68 64 76 127 25 178 -62 62 -207 83 -315 46z
m240 -24 c69 -29 86 -72 48 -120 l-20 -25 -137 35 c-211 52 -214 53 -208 64
10 14 86 52 125 60 48 11 151 3 192 -14z"/>
</g>
</svg>
